HIERARCHY
ROOT Hips
{
	OFFSET -0.09297 91.81560 -12.71420
	CHANNELS 6 Xposition Yposition Zposition Zrotation Xrotation Yrotation
	JOINT Spine
	{
		OFFSET 0.00000 14.09320 -1.51142
		CHANNELS 3 Zrotation Xrotation Yrotation
		JOINT Spine1
		{
			OFFSET 0.00000 8.69660 0.00000
			CHANNELS 3 Zrotation Xrotation Yrotation
			JOINT Spine2
			{
				OFFSET 0.00000 8.69660 0.00000
				CHANNELS 3 Zrotation Xrotation Yrotation
				JOINT Spine3
				{
					OFFSET 0.00000 8.69660 0.00000
					CHANNELS 3 Zrotation Xrotation Yrotation
					JOINT Neck
					{
						OFFSET 0.00000 11.18130 1.11813
						CHANNELS 3 Zrotation Xrotation Yrotation
						JOINT Neck1
						{
							OFFSET 0.00000 5.70631 0.00000
							CHANNELS 3 Zrotation Xrotation Yrotation
							JOINT Head
							{
								OFFSET 0.00000 5.70631 0.00000
								CHANNELS 3 Zrotation Xrotation Yrotation
								End site
								{
									OFFSET 0.00000 9.71257 0.00000
								}
							}
						}
					}
					JOINT RightShoulder
					{
						OFFSET 0.00000 7.98668 5.19711
						CHANNELS 3 Zrotation Xrotation Yrotation
						JOINT RightArm
						{
							OFFSET 0.00000 18.31580 0.00000
							CHANNELS 3 Zrotation Xrotation Yrotation
							JOINT RightForeArm
							{
								OFFSET 0.00000 28.87420 0.00000
								CHANNELS 3 Zrotation Xrotation Yrotation
								JOINT RightHand
								{
									OFFSET 0.00000 23.87720 0.00000
									CHANNELS 3 Zrotation Xrotation Yrotation
									JOINT RightHandThumb1
									{
										OFFSET -2.41094 4.67063 3.47303
										CHANNELS 3 Zrotation Xrotation Yrotation
										JOINT RightHandThumb2
										{
											OFFSET 0.00000 3.95207 0.00000
											CHANNELS 3 Zrotation Xrotation Yrotation
											JOINT RightHandThumb3
											{
												OFFSET 0.00000 2.15568 0.00000
												CHANNELS 3 Zrotation Xrotation Yrotation
												End site
												{
													OFFSET 0.00000 1.91616 0.00000
												}
											}
										}
									}
									JOINT RightHandIndex1
									{
										OFFSET 0.00000 12.45500 2.51496
										CHANNELS 3 Zrotation Xrotation Yrotation
										JOINT RightHandIndex2
										{
											OFFSET 0.00000 4.79039 0.00000
											CHANNELS 3 Zrotation Xrotation Yrotation
											JOINT RightHandIndex3
											{
												OFFSET 0.00000 2.63472 0.00000
												CHANNELS 3 Zrotation Xrotation Yrotation
												End site
												{
													OFFSET 0.00000 1.91616 0.00000
												}
											}
										}
									}
									JOINT RightHandMiddle1
									{
										OFFSET 0.00000 12.45500 -0.07984
										CHANNELS 3 Zrotation Xrotation Yrotation
										JOINT RightHandMiddle2
										{
											OFFSET 0.00000 5.38919 0.00000
											CHANNELS 3 Zrotation Xrotation Yrotation
											JOINT RightHandMiddle3
											{
												OFFSET 0.00000 3.11376 0.00000
												CHANNELS 3 Zrotation Xrotation Yrotation
												End site
												{
													OFFSET 0.00000 2.03592 0.00000
												}
											}
										}
									}
									JOINT RightHandRing1
									{
										OFFSET 0.00000 11.07780 -2.67464
										CHANNELS 3 Zrotation Xrotation Yrotation
										JOINT RightHandRing2
										{
											OFFSET 0.00000 4.91015 0.00000
											CHANNELS 3 Zrotation Xrotation Yrotation
											JOINT RightHandRing3
											{
												OFFSET 0.00000 3.11376 0.00000
												CHANNELS 3 Zrotation Xrotation Yrotation
												End site
												{
													OFFSET 0.00000 2.03592 0.00000
												}
											}
										}
									}
									JOINT RightHandPinky1
									{
										OFFSET 0.00000 9.70055 -5.26943
										CHANNELS 3 Zrotation Xrotation Yrotation
										JOINT RightHandPinky2
										{
											OFFSET 0.00000 3.95207 0.00000
											CHANNELS 3 Zrotation Xrotation Yrotation
											JOINT RightHandPinky3
											{
												OFFSET 0.00000 2.15568 0.00000
												CHANNELS 3 Zrotation Xrotation Yrotation
												End site
												{
													OFFSET 0.00000 1.91616 0.00000
												}
											}
										}
									}
								}
							}
						}
					}
					JOINT LeftShoulder
					{
						OFFSET 0.00000 7.98668 5.19711
						CHANNELS 3 Zrotation Xrotation Yrotation
						JOINT LeftArm
						{
							OFFSET 0.00000 18.31580 0.00000
							CHANNELS 3 Zrotation Xrotation Yrotation
							JOINT LeftForeArm
							{
								OFFSET 0.00000 28.87420 0.00000
								CHANNELS 3 Zrotation Xrotation Yrotation
								JOINT LeftHand
								{
									OFFSET 0.00000 23.87720 0.00000
									CHANNELS 3 Zrotation Xrotation Yrotation
									JOINT LeftHandThumb1
									{
										OFFSET 2.41094 4.67063 3.47303
										CHANNELS 3 Zrotation Xrotation Yrotation
										JOINT LeftHandThumb2
										{
											OFFSET 0.00000 3.95207 0.00000
											CHANNELS 3 Zrotation Xrotation Yrotation
											JOINT LeftHandThumb3
											{
												OFFSET 0.00000 2.15568 0.00000
												CHANNELS 3 Zrotation Xrotation Yrotation
												End site
												{
													OFFSET 0.00000 1.60000 0.00000
												}
											}
										}
									}
									JOINT LeftHandIndex1
									{
										OFFSET 0.00000 12.45500 2.51496
										CHANNELS 3 Zrotation Xrotation Yrotation
										JOINT LeftHandIndex2
										{
											OFFSET 0.00000 4.79039 0.00000
											CHANNELS 3 Zrotation Xrotation Yrotation
											JOINT LeftHandIndex3
											{
												OFFSET 0.00000 2.63472 0.00000
												CHANNELS 3 Zrotation Xrotation Yrotation
												End site
												{
													OFFSET 0.00000 1.91616 0.00000
												}
											}
										}
									}
									JOINT LeftHandMiddle1
									{
										OFFSET 0.00000 12.45500 -0.07984
										CHANNELS 3 Zrotation Xrotation Yrotation
										JOINT LeftHandMiddle2
										{
											OFFSET 0.00000 5.38919 0.00000
											CHANNELS 3 Zrotation Xrotation Yrotation
											JOINT LeftHandMiddle3
											{
												OFFSET 0.00000 3.11376 0.00000
												CHANNELS 3 Zrotation Xrotation Yrotation
												End site
												{
													OFFSET 0.00000 2.03592 0.00000
												}
											}
										}
									}
									JOINT LeftHandRing1
									{
										OFFSET 0.00000 11.07780 -2.67464
										CHANNELS 3 Zrotation Xrotation Yrotation
										JOINT LeftHandRing2
										{
											OFFSET 0.00000 4.91015 0.00000
											CHANNELS 3 Zrotation Xrotation Yrotation
											JOINT LeftHandRing3
											{
												OFFSET 0.00000 3.11376 0.00000
												CHANNELS 3 Zrotation Xrotation Yrotation
												End site
												{
													OFFSET 0.00000 2.03592 0.00000
												}
											}
										}
									}
									JOINT LeftHandPinky1
									{
										OFFSET 0.00000 9.70055 -5.26943
										CHANNELS 3 Zrotation Xrotation Yrotation
										JOINT LeftHandPinky2
										{
											OFFSET 0.00000 3.95207 0.00000
											CHANNELS 3 Zrotation Xrotation Yrotation
											JOINT LeftHandPinky3
											{
												OFFSET 0.00000 2.15568 0.00000
												CHANNELS 3 Zrotation Xrotation Yrotation
												End site
												{
													OFFSET 0.00000 1.91616 0.00000
												}
											}
										}
									}
								}
							}
						}
					}
				}
			}
		}
	}
	JOINT RightUpLeg
	{
		OFFSET -10.06560 0.00000 0.00000
		CHANNELS 3 Zrotation Xrotation Yrotation
		JOINT RightLeg
		{
			OFFSET 0.00000 -42.98740 0.00000
			CHANNELS 3 Zrotation Xrotation Yrotation
			JOINT RightFoot
			{
				OFFSET 0.00000 -44.62500 0.00000
				CHANNELS 3 Zrotation Xrotation Yrotation
				JOINT RightForeFoot
				{
					OFFSET 0.00000 -3.74821 0.00000
					CHANNELS 3 Zrotation Xrotation Yrotation
					JOINT RightToeBase
					{
						OFFSET 0.00000 0.00000 14.67920
						CHANNELS 3 Zrotation Xrotation Yrotation
						End site
						{
							OFFSET 0.00000 0.00000 10.36040
						}
					}
				}
			}
		}
	}
	JOINT LeftUpLeg
	{
		OFFSET 10.06560 0.00000 0.00000
		CHANNELS 3 Zrotation Xrotation Yrotation
		JOINT LeftLeg
		{
			OFFSET 0.00000 -42.98740 0.00000
			CHANNELS 3 Zrotation Xrotation Yrotation
			JOINT LeftFoot
			{
				OFFSET 0.00000 -44.62500 0.00000
				CHANNELS 3 Zrotation Xrotation Yrotation
				JOINT LeftForeFoot
				{
					OFFSET 0.00000 -3.74821 0.00000
					CHANNELS 3 Zrotation Xrotation Yrotation
					JOINT LeftToeBase
					{
						OFFSET 0.00000 0.00000 14.67920
						CHANNELS 3 Zrotation Xrotation Yrotation
						End site
						{
							OFFSET 0.00000 0.00000 10.67280
						}
					}
				}
			}
		}
	}
}
MOTION
Frames: 6
Frame Time: 0.016667
-14.0759 91.7468 -147.808 -3.88803 -1.15881 -116.907 -2.5887 2.57244 -0.404002 -1.47317 5.17714 0.520312 -0.447405 2.10788 -1.82244 3.50274 3.73383 -1.58479 -2.96928 10.4033 -0.325979 -1.74613 -6.22761 -4.69288 -1.43962 -23.1393 -0.414742 101.065 -16.5731 3.19262 62.1738 10.3854 -35.446 -0.000113782 30.8279 -5.32552 -4.95158 -7.19432 -6.36883e-05 24.332 20.0914 -8.82956 -3.33927e-15 -28.0696 -5.4068e-15 -1.98785e-16 -23.3913 -0.0 36.6611 5.56597e-15 1.85864e-14 43.9933 -8.64713e-15 -2.32578e-14 36.6611 -8.94531e-16 7.0817e-16 44.6708 6.85807e-15 2.13694e-14 53.605 -1.67973e-14 -2.85008e-14 44.6708 2.68359e-15 -2.98177e-15 43.4173 6.70898e-15 1.92821e-14 52.1008 -1.32192e-14 -2.1096e-14 43.4173 5.96354e-16 -3.23025e-15 50.4632 1.04362e-14 2.34566e-14 60.5559 -1.15295e-14 -2.56424e-14 50.4632 4.07509e-15 3.97569e-16 -92.3549 -18.1628 -0.734437 -85.5464 42.919 49.3199 179.986 52.7698 113.144 17.7569 9.90062 0.00271838 -9.80904 45.7743 7.0581 -4.17448e-15 -0.0835373 -0.0 1.98688e-15 -0.0696145 -7.95139e-16 10.5725 3.18055e-15 2.70844e-15 -7.77745e-15 -1.27222e-14 5.01931e-15 -2.68359e-15 -1.59028e-14 -2.80783e-15 -7.41098 -3.18055e-15 1.59028e-15 -8.89308 9.54166e-15 -1.59028e-15 -7.41098 0.0 -6.36111e-15 -18.6409 3.18055e-15 -1.59028e-15 -22.3689 0.0 -3.18055e-15 -18.6409 1.59028e-15 -0.0 -40.8666 6.36111e-15 -3.18055e-15 -49.0398 6.36111e-15 3.18055e-15 -40.8666 9.54166e-15 -1.27222e-14 -2.3809 -3.6427 -27.8961 1.52683e-15 12.9556 -3.26363e-15 -8.7179 -9.67407 -28.1333 -5.96354e-16 0.0 -0.0 -5.3353e-16 11.7089 -3.24814e-15 5.91468 -3.91851 27.5222 -4.79965e-16 25.8322 2.92631e-15 -1.67015 -8.70602 1.46825 -2.75869e-33 3.97569e-16 3.97569e-16 -3.72422e-16 -3.61934 3.98364e-16
9.74678 90.8312 -125.494 -6.06882 5.57746 -172.478 -2.96281 0.0381344 -0.425182 -1.58411 4.96114 0.615717 -0.871438 2.22047 -0.700389 3.23829 2.35596 -1.37754 -2.26703 5.27415 0.363484 -3.12894 -2.5168 -4.36095 -3.26534 -17.0447 -0.209761 100.575 -14.3722 2.65314 62.3433 11.4661 -19.6068 -179.979 82.8768 172.345 -26.9186 -24.7266 -0.000808813 26.3641 39.0573 -17.3434 -1.5415e-15 -3.71815 -5.37851e-15 2.4497e-15 -3.09846 -2.48845e-15 -1.81092 1.59028e-15 -0.0 0.0 0.0 -7.95139e-16 -3.18055e-15 1.59028e-15 -4.77083e-15 5.83365 1.59028e-15 -2.78299e-15 7.00038 -1.59028e-15 -4.47266e-15 5.83365 1.59028e-15 4.72114e-15 10.8605 0.0 -3.18055e-15 13.0326 -1.59028e-15 -4.17448e-15 10.8605 3.18055e-15 3.57812e-15 24.6604 -3.18055e-15 -6.75868e-15 29.5925 1.59028e-15 4.77083e-15 24.6604 -3.18055e-15 4.77083e-15 -97.3473 -15.1514 -1.93022 -67.4013 6.91572 26.7476 -179.989 80.0461 178.353 13.6183 -18.7713 0.00172983 -34.4606 28.8383 18.3148 3.18055e-15 -13.8339 -0.0 -4.86542e-16 -11.5282 -2.43453e-15 10.6335 0.0 -9.54166e-15 6.36111e-15 1.59028e-15 3.18055e-15 3.18055e-15 1.59028e-15 -0.0 4.37329 0.0 -6.75868e-15 -4.41391e-32 -1.59028e-15 -1.59028e-15 -1.59028e-15 0.0 -1.59028e-15 -1.7506 -1.59028e-15 -8.84592e-15 -2.10072 4.77083e-15 -3.926e-15 -1.7506 -1.59028e-15 -1.18028e-15 -17.1519 1.59028e-15 -0.0 -20.5823 9.54166e-15 1.59028e-15 -17.1519 -5.56597e-15 1.59028e-15 -0.174275 4.20514 -14.5927 1.18352e-15 15.4013 -1.64951e-15 -8.33815 -16.8018 -15.9612 9.93923e-17 -3.97569e-16 6.36111e-15 5.37944e-16 12.104 9.75861e-15 8.16884 -0.477813 25.2361 2.71628e-15 23.1231 -6.91678e-15 -6.03928 -4.29533 -0.778242 7.95139e-16 7.95139e-16 -3.18055e-15 9.44767e-16 -2.69349 3.18407e-15
8.04732 91.3996 -128.989 -6.08586 1.72443 -160.85 -4.31311 3.59059 -0.22794 -1.7912 5.06745 0.580543 -1.3048 2.1386 -2.34572 3.24934 2.99438 -1.80259 1.24749 9.63811 -3.77642 -0.506742 -1.7083 -9.03659 -0.00921704 -16.4355 -0.691604 98.8498 -21.2705 3.23279 48.3502 4.31577 8.84258 -5.29269e-05 57.0033 -35.4526 -36.2883 -10.1004 0.000134185 26.0799 48.4407 -20.1151 -7.95139e-16 0.0 -4.47266e-16 -7.95139e-16 7.95139e-16 -4.96962e-16 0.614637 0.0 -3.18055e-15 0.737565 -6.36111e-15 -0.0 0.614637 -9.54166e-15 -0.0 1.75836 6.36111e-15 -1.59028e-15 2.11004 -3.18055e-15 3.18055e-15 1.75836 -6.36111e-15 1.59028e-15 2.42338 -3.18055e-15 -1.59028e-15 2.90806 3.18055e-15 -1.59028e-15 2.42338 -3.18055e-15 -1.59028e-15 4.60701 3.18055e-15 -0.0 5.52841 6.36111e-15 7.95139e-16 4.60701 3.18055e-15 3.97569e-15 -97.7789 -19.2352 -2.57678 -50.2375 3.25182 15.1503 -0.00115224 67.9873 39.9519 33.816 0.763889 -0.00024367 -25.684 45.1948 18.8405 1.59028e-15 3.18055e-15 -3.97569e-16 3.18055e-15 3.18055e-15 3.97569e-16 7.14667 -9.54166e-15 1.59028e-15 -4.77083e-15 -6.36111e-15 3.18055e-15 0.0 0.0 -0.0 3.34051 -9.54166e-15 1.59028e-15 7.95139e-16 3.18055e-15 7.95139e-16 7.95139e-16 3.18055e-15 -0.0 0.0106092 -1.27222e-14 1.59028e-15 -0.000491886 1.59028e-14 -0.0 -0.000409905 0.0 -7.95139e-16 -7.14524 -9.54166e-15 -2.98177e-15 -8.57428 -3.18055e-15 -4.77083e-15 -7.14524 -9.54166e-15 -0.0 -0.269126 -0.631094 -4.62568 4.89201e-16 14.8104 -6.57971e-15 -6.98945 -14.2332 -7.9982 -3.97569e-16 7.95139e-16 -1.59028e-15 3.74801e-16 11.9471 -3.25097e-15 8.73863 -5.02 17.8921 1.98842e-15 36.8765 -3.97604e-15 -10.014 -0.653105 1.5971 -1.59028e-15 -3.18055e-15 -3.18055e-15 2.2963e-15 -15.537 -3.30119e-15
-12.6601 91.2595 -80.5435 -6.39526 3.52229 -168.642 -10.9632 3.22406 0.328623 -2.23823 5.31512 0.90855 -4.28465 1.66355 0.184435 0.00777851 1.1665 -0.973183 7.18729 4.99574 -10.1491 -1.53694 -4.45799 -23.4299 1.09518 -19.4546 -1.74992 80.763 -21.2921 -3.37968 -19.1818 44.5296 68.1014 0.00686832 63.767 -8.16699 -31.5712 0.522701 0.00678241 39.6603 23.2352 161.893 -9.54166e-15 4.77083e-15 -3.18055e-15 5.29669e-31 9.54166e-15 -3.18055e-15 43.6157 -1.43125e-14 -2.38542e-14 52.3388 -6.36111e-15 -1.66979e-14 43.6157 1.59028e-15 1.59028e-15 57.6659 -2.38542e-14 -2.8625e-14 69.1991 -2.06736e-14 -1.11319e-14 57.6659 8.34896e-15 9.54166e-15 59.0514 -2.54444e-14 -3.02153e-14 70.8617 -7.95139e-15 -9.54166e-15 59.0514 1.19271e-14 1.11319e-14 74.1811 -3.49861e-14 -2.5842e-14 89.0173 -9.93923e-15 -0.0 74.1811 3.49861e-14 4.45278e-14 -98.2411 -13.8271 -1.98248 -59.5299 4.36613 26.9195 0.00015745 36.6684 2.03218 1.43917 -5.64908 -1.24499e-05 -28.5574 27.4333 -165.924 -6.36111e-15 3.18055e-15 -0.0 -3.18055e-15 0.0 -3.18055e-15 -14.8886 0.0 -4.77083e-15 -17.8664 3.18055e-15 -0.0 -14.8886 3.18055e-15 -3.18055e-15 -22.9305 3.18055e-15 -4.77083e-15 -27.5166 7.95139e-15 -1.59028e-14 -22.9305 2.21148e-15 -0.0 -25.147 3.18055e-15 -7.95139e-15 -30.1764 3.97569e-15 -6.36111e-15 -25.147 3.97569e-16 -1.59028e-14 -34.5645 4.77083e-15 -9.54166e-15 -41.4774 -2.5842e-15 -3.18055e-15 -34.5645 -1.59028e-15 1.27222e-14 -14.3661 -9.56897 -29.8004 -1.04049e-15 16.0966 6.62067e-15 -1.99544 -1.3534 -20.7799 1.98785e-16 1.19271e-15 -1.27222e-14 6.8618e-16 13.1089 -6.53131e-15 -8.46703 2.11591 34.1513 -3.48029e-16 14.8731 -3.29081e-15 3.48971 -9.36475 1.55306 -0.0 -3.97569e-16 -0.0 1.57135e-16 -2.82839 3.18443e-15
-1.5188 91.0364 -75.2091 -4.63308 8.22112 -168.653 -7.06428 0.192205 0.106269 -1.85815 5.09596 0.70113 -2.60705 1.97433 -1.22044 2.55061 2.28063 -1.7534 3.08095 7.93608 -3.47089 -1.23825 -3.99412 -9.03338 -0.41937 -19.023 -0.699517 91.8992 -17.0524 0.557158 26.2455 41.6785 53.9596 -0.00279919 68.2371 88.2933 -22.1746 -4.34794 0.00425913 6.98987 61.6635 173.842 -180.0 16.1064 -180.0 -180.0 -16.578 -180.0 3.98889 0.0 -3.97569e-15 4.78669 3.18055e-15 -0.0 3.98889 -3.18055e-15 1.59028e-15 17.4745 0.0 -4.77083e-15 20.9694 3.18055e-15 -6.36111e-15 17.4745 -1.59028e-15 -3.18055e-15 24.5746 -6.36111e-15 -0.0 29.4895 -6.36111e-15 -0.0 24.5746 2.78299e-15 6.36111e-15 43.9158 0.0 -3.18055e-15 52.6989 1.11319e-14 -0.0 43.9158 -6.36111e-15 -0.0 -96.8105 -14.5335 -1.71604 -62.0346 7.1043 -8.88044 -0.00962564 22.9409 -8.1455 19.1964 -22.982 0.00046257 -31.6725 30.2489 -162.741 -3.53113e-31 -3.18055e-15 -6.36111e-15 -7.06225e-31 -6.36111e-15 -6.36111e-15 -11.7832 -1.39149e-15 -0.0 -14.1398 3.18055e-15 9.54166e-15 -11.7832 -1.59028e-15 3.18055e-15 -21.3097 -5.1684e-15 -3.18055e-15 -25.5716 0.0 9.54166e-15 -21.3097 0.0 -0.0 -24.9122 -2.38542e-15 -0.0 -29.8947 3.18055e-15 -6.36111e-15 -24.9122 3.18055e-15 -7.95139e-15 -37.7834 -3.18055e-15 6.36111e-15 -45.34 -6.36111e-15 1.59028e-15 -37.7834 -3.18055e-15 -0.0 -7.04028 -0.711644 -11.2455 -7.96538e-16 16.0993 -3.31038e-15 0.0964867 -10.3934 -10.0013 0.0 0.0 -0.0 5.02974e-16 11.8375 -4.8745e-15 2.59528 11.0566 25.2686 -1.58532e-15 17.3133 6.663e-15 -6.28318 -10.9617 0.622139 -3.97569e-16 7.95139e-16 6.36111e-15 4.85465e-17 -2.67689 9.55209e-15
6.51301 90.9882 -74.4822 -7.6161 2.1159 -165.544 -6.96538 1.07682 0.132339 -2.04622 5.02691 0.870575 -1.72702 2.35649 1.81461 1.3733 3.16012 -0.84029 -3.83698 8.44806 6.51349 -1.94858 -3.57926 6.26936 -3.0798 -18.4308 0.541698 96.6167 -15.6468 1.79174 25.6226 27.6627 42.1205 -0.002017 53.6529 65.4893 -9.52914 -4.42582 -0.00021237 1.04688 60.9655 179.084 180.0 17.1529 -180.0 -180.0 -15.7059 -180.0 22.7046 0.0 1.55052e-14 27.2455 0.0 -7.95139e-15 22.7046 0.0 -4.77083e-15 35.1833 -3.18055e-15 9.93923e-15 42.22 1.59028e-15 -3.18055e-15 35.1833 -1.07344e-14 -1.27222e-14 38.4338 -6.36111e-15 1.43125e-14 46.1206 -9.54166e-15 -1.90833e-14 38.4338 -1.05356e-14 -2.22639e-14 53.425 0.0 1.43125e-14 64.11 1.68967e-15 6.36111e-15 53.425 -3.49861e-14 -3.49861e-14 -97.6893 -19.0643 -2.52494 -60.0481 0.313181 20.8974 0.00014073 30.5899 1.19344 -0.463681 -9.35434 0.00142417 -25.769 23.074 10.7138 -2.22986e-17 -23.937 4.34981e-16 -3.97569e-16 -19.9475 -0.0 -11.5448 3.97569e-16 -1.59028e-15 -13.8537 0.0 -4.77083e-15 -11.5448 7.95139e-16 3.18055e-15 -20.6761 1.59028e-15 -3.97569e-15 -24.8113 -1.59028e-15 3.97569e-15 -20.6761 0.0 -1.19271e-15 -24.0266 1.59028e-15 -3.97569e-15 -28.8319 -1.59028e-15 -1.59028e-15 -24.0266 4.77083e-15 -1.04735e-14 -35.6202 2.38542e-15 -4.77083e-15 -42.7442 -3.18055e-15 5.51627e-15 -35.6202 -2.38542e-15 6.36111e-15 -3.19089 2.61912 -18.3021 -2.10152e-16 15.9852 -3.30848e-15 -6.1049 -17.9004 -14.7514 -9.93923e-17 -7.95139e-16 -0.0 1.1866e-15 13.9326 -3.27696e-15 4.22605 -1.56904 19.9824 -9.93923e-16 18.3645 -0.0 -6.90214 -3.11937 -6.15539 4.41391e-32 7.95139e-16 -3.18055e-15 -1.43252e-16 -2.57886 -3.18378e-15
